<svg xmlns="http://www.w3.org/2000/svg" viewBox="0 0 500 500"><g id="freepik--Hamburger--inject-1"><path d="M90.51,387.47l83,18.88c0,5.4,33.69,9.77,75.26,9.77S324,411.75,324,406.35l83-18.88Z" style="fill:#407BFF"></path><path d="M90.51,387.47l83,18.88c0,5.4,33.69,9.77,75.26,9.77S324,411.75,324,406.35l83-18.88Z" style="fill:#fff;opacity:0.5"></path><ellipse cx="248.74" cy="387.47" rx="158.22" ry="20.54" style="fill:#407BFF"></ellipse><ellipse cx="248.74" cy="387.47" rx="158.22" ry="20.54" style="fill:#fff;opacity:0.6000000000000001"></ellipse><path d="M370,346a8.13,8.13,0,0,0-.38-2.43,13.84,13.84,0,0,0,.38-3.19c0-.22,0-.43,0-.64a7.77,7.77,0,0,0-.64-10.36c0-.05,0-.09,0-.14a8.1,8.1,0,0,0-2.36-5.82,4,4,0,0,0,.37-1.67c0-2.45-2.22-4.51-5.26-5.18a8.66,8.66,0,0,0-6.95-3.48,9.81,9.81,0,0,0-1.09.07,10.31,10.31,0,0,0-8.68-4.2,12.19,12.19,0,0,0-2.87.34,4.23,4.23,0,0,0-4-2.88,4.17,4.17,0,0,0-2.29.68c-1.27-2.35-4.86-4-9.1-4A14.25,14.25,0,0,0,322,304a14.68,14.68,0,0,0-8.92-2.87,14.94,14.94,0,0,0-8,2.23c-.78-2-2-3.3-3.46-3.3s-2.52,1.15-3.31,2.94a7.81,7.81,0,0,0-6.61-3.41,8.47,8.47,0,0,0-3.59.79,8.78,8.78,0,0,0-4.57-1.24,8.94,8.94,0,0,0-4.14,1,5.25,5.25,0,0,0-9,0c-8.86-.63-18.05-1-27.49-1a345.29,345.29,0,0,0-67,6.17,7.44,7.44,0,0,0-2.5-.42c-2.11,0-3.89.81-4.45,1.92l-.66.16a6,6,0,0,0-2.72-.63,5.09,5.09,0,0,0-4.64,2.49l-.14,0a8.63,8.63,0,0,0-3.55-.7c-3,0-5.45,1.31-5.45,2.93a1.44,1.44,0,0,0,.08.46l-.62.21a1.89,1.89,0,0,0-1.55-1.13,1.71,1.71,0,0,0-1.36.82,4.21,4.21,0,0,0-3.23,1.66c-.27,0-.54,0-.82,0-3.51,0-6.44,1.4-7.26,3.29a7.48,7.48,0,0,0-1.5-.15,8,8,0,0,0-7.22,4.57,6.49,6.49,0,0,0-.77-.05c-2.68,0-4.85,1.58-4.85,3.53v0c-3.61.28-6.49,2.49-7,5.3a3.66,3.66,0,0,0-1.18,2.61,3.54,3.54,0,0,0,.77,2.16,5.84,5.84,0,0,0-2.32,4.79,5.74,5.74,0,0,0,2.66,5s0,.08,0,.12a4.31,4.31,0,0,0,2,3.42c.12.23.26.45.39.67a5.62,5.62,0,0,0-.2,1.48c0,3.77,3.74,6.84,8.44,7l.47.35c.59,3,4.07,5.34,8.39,5.59a7.42,7.42,0,0,0,1.3,1.72,2.61,2.61,0,0,0-.73,1.73c0,2.62,4.78,4.74,10.69,4.74a22.17,22.17,0,0,0,4.77-.5,12.66,12.66,0,0,0,8.24,2.7,14.77,14.77,0,0,0,2.43-.19,7.25,7.25,0,0,0,4.76,1.6,8.3,8.3,0,0,0,2.5-.37,16.18,16.18,0,0,0,2.94.37c20.25,4.4,44.61,7,70.83,7,35.34,0,67.31-4.67,90.36-12.21a13.26,13.26,0,0,0,2.47.24,11.16,11.16,0,0,0,7.73-2.83,21.14,21.14,0,0,0,3.13.23c5.12,0,9.48-1.75,11.19-4.2.25,0,.51,0,.77,0,4.08,0,7.39-2.62,7.39-5.85a5,5,0,0,0-1.36-3.37l0,0a3.37,3.37,0,0,0,2.85,1.74c1.95,0,3.53-1.88,3.53-4.2a4.61,4.61,0,0,0-1.15-3.1A8.27,8.27,0,0,0,370,346Z" style="fill:#407BFF"></path><path d="M370,346a8.13,8.13,0,0,0-.38-2.43,13.84,13.84,0,0,0,.38-3.19c0-.22,0-.43,0-.64a7.77,7.77,0,0,0-.64-10.36c0-.05,0-.09,0-.14a8.1,8.1,0,0,0-2.36-5.82,4,4,0,0,0,.37-1.67c0-2.45-2.22-4.51-5.26-5.18a8.66,8.66,0,0,0-6.95-3.48,9.81,9.81,0,0,0-1.09.07,10.31,10.31,0,0,0-8.68-4.2,12.19,12.19,0,0,0-2.87.34,4.23,4.23,0,0,0-4-2.88,4.17,4.17,0,0,0-2.29.68c-1.27-2.35-4.86-4-9.1-4A14.25,14.25,0,0,0,322,304a14.68,14.68,0,0,0-8.92-2.87,14.94,14.94,0,0,0-8,2.23c-.78-2-2-3.3-3.46-3.3s-2.52,1.15-3.31,2.94a7.81,7.81,0,0,0-6.61-3.41,8.47,8.47,0,0,0-3.59.79,8.78,8.78,0,0,0-4.57-1.24,8.94,8.94,0,0,0-4.14,1,5.25,5.25,0,0,0-9,0c-8.86-.63-18.05-1-27.49-1a345.29,345.29,0,0,0-67,6.17,7.44,7.44,0,0,0-2.5-.42c-2.11,0-3.89.81-4.45,1.92l-.66.16a6,6,0,0,0-2.72-.63,5.09,5.09,0,0,0-4.64,2.49l-.14,0a8.63,8.63,0,0,0-3.55-.7c-3,0-5.45,1.31-5.45,2.93a1.44,1.44,0,0,0,.08.46l-.62.21a1.89,1.89,0,0,0-1.55-1.13,1.71,1.71,0,0,0-1.36.82,4.21,4.21,0,0,0-3.23,1.66c-.27,0-.54,0-.82,0-3.51,0-6.44,1.4-7.26,3.29a7.48,7.48,0,0,0-1.5-.15,8,8,0,0,0-7.22,4.57,6.49,6.49,0,0,0-.77-.05c-2.68,0-4.85,1.58-4.85,3.53v0c-3.61.28-6.49,2.49-7,5.3a3.66,3.66,0,0,0-1.18,2.61,3.54,3.54,0,0,0,.77,2.16,5.84,5.84,0,0,0-2.32,4.79,5.74,5.74,0,0,0,2.66,5s0,.08,0,.12a4.31,4.31,0,0,0,2,3.42c.12.23.26.45.39.67a5.62,5.62,0,0,0-.2,1.48c0,3.77,3.74,6.84,8.44,7l.47.35c.59,3,4.07,5.34,8.39,5.59a7.42,7.42,0,0,0,1.3,1.72,2.61,2.61,0,0,0-.73,1.73c0,2.62,4.78,4.74,10.69,4.74a22.17,22.17,0,0,0,4.77-.5,12.66,12.66,0,0,0,8.24,2.7,14.77,14.77,0,0,0,2.43-.19,7.25,7.25,0,0,0,4.76,1.6,8.3,8.3,0,0,0,2.5-.37,16.18,16.18,0,0,0,2.94.37c20.25,4.4,44.61,7,70.83,7,35.34,0,67.31-4.67,90.36-12.21a13.26,13.26,0,0,0,2.47.24,11.16,11.16,0,0,0,7.73-2.83,21.14,21.14,0,0,0,3.13.23c5.12,0,9.48-1.75,11.19-4.2.25,0,.51,0,.77,0,4.08,0,7.39-2.62,7.39-5.85a5,5,0,0,0-1.36-3.37l0,0a3.37,3.37,0,0,0,2.85,1.74c1.95,0,3.53-1.88,3.53-4.2a4.61,4.61,0,0,0-1.15-3.1A8.27,8.27,0,0,0,370,346Z" style="opacity:0.45"></path><path d="M370,346a8.13,8.13,0,0,0-.38-2.43,13.84,13.84,0,0,0,.38-3.19c0-.22,0-.43,0-.64a7.77,7.77,0,0,0-.64-10.36c0-.05,0-.09,0-.14a8.1,8.1,0,0,0-2.36-5.82,4,4,0,0,0,.37-1.67c0-2.45-2.22-4.51-5.26-5.18a8.66,8.66,0,0,0-6.95-3.48h-.08a7.6,7.6,0,0,1,.09,1.07,6.7,6.7,0,0,1-1.47,4.2c0,.19,0,.38,0,.56a12,12,0,0,1-.33,2.79,6.93,6.93,0,0,1,.09,3.92,4,4,0,0,1,1,2.71,3.42,3.42,0,0,1-3.08,3.67,3,3,0,0,1-2.49-1.52h0a4.42,4.42,0,0,1,1.18,2.94c0,2.82-2.88,5.11-6.44,5.11-.23,0-.45,0-.67,0-1.49,2.14-5.3,3.66-9.77,3.66a20.06,20.06,0,0,1-2.73-.19,9.78,9.78,0,0,1-6.74,2.46,11.64,11.64,0,0,1-2.16-.2c-20.11,6.57-48,10.65-78.83,10.65-22.88,0-44.13-2.24-61.8-6.09a13.89,13.89,0,0,1-2.56-.32,7.29,7.29,0,0,1-2.19.33,6.3,6.3,0,0,1-4.15-1.4,13.29,13.29,0,0,1-2.12.17,11,11,0,0,1-7.19-2.36,19.19,19.19,0,0,1-4.16.43c-5.15,0-9.33-1.85-9.33-4.13a2.31,2.31,0,0,1,.64-1.51,6,6,0,0,1-1.13-1.5c-3.78-.22-6.81-2.26-7.32-4.87l-.41-.31c-4.1-.17-7.36-2.86-7.36-6.14a5,5,0,0,1,.17-1.29c-.12-.2-.24-.39-.34-.59a3.76,3.76,0,0,1-1.76-3s0-.07,0-.1a4.89,4.89,0,0,1-2.21-3.36,7.7,7.7,0,0,0-1.28,1.91,6.49,6.49,0,0,0-.77-.05c-2.68,0-4.85,1.58-4.85,3.53v0c-3.61.28-6.49,2.49-7,5.3a3.66,3.66,0,0,0-1.18,2.61,3.54,3.54,0,0,0,.77,2.16,5.84,5.84,0,0,0-2.32,4.79,5.74,5.74,0,0,0,2.66,5s0,.08,0,.12a4.31,4.31,0,0,0,2,3.42c.12.23.26.45.39.67a5.62,5.62,0,0,0-.2,1.48c0,3.77,3.74,6.84,8.44,7l.47.35c.59,3,4.07,5.34,8.39,5.59a7.42,7.42,0,0,0,1.3,1.72,2.61,2.61,0,0,0-.73,1.73c0,2.62,4.78,4.74,10.69,4.74a22.17,22.17,0,0,0,4.77-.5,12.66,12.66,0,0,0,8.24,2.7,14.77,14.77,0,0,0,2.43-.19,7.25,7.25,0,0,0,4.76,1.6,8.3,8.3,0,0,0,2.5-.37,16.18,16.18,0,0,0,2.94.37c20.25,4.4,44.61,7,70.83,7,35.34,0,67.31-4.67,90.36-12.21a13.26,13.26,0,0,0,2.47.24,11.16,11.16,0,0,0,7.73-2.83,21.14,21.14,0,0,0,3.13.23c5.12,0,9.48-1.75,11.19-4.2.25,0,.51,0,.77,0,4.08,0,7.39-2.62,7.39-5.85a5,5,0,0,0-1.36-3.37l0,0a3.37,3.37,0,0,0,2.85,1.74c1.95,0,3.53-1.88,3.53-4.2a4.61,4.61,0,0,0-1.15-3.1A8.27,8.27,0,0,0,370,346Z" style="opacity:0.25"></path><path d="M119.8,360.69c85.87,22.76,169,22.51,248.94-1.79,10.84,9.43,9.43,19.34,0,29.55-29.54,20.95-188.52,24-247,4Q108.25,378.33,119.8,360.69Z" style="fill:#407BFF"></path><path d="M119.8,360.69c85.87,22.76,169,22.51,248.94-1.79,10.84,9.43,9.43,19.34,0,29.55-29.54,20.95-188.52,24-247,4Q108.25,378.33,119.8,360.69Z" style="fill:#fff;opacity:0.30000000000000004"></path><path d="M363.56,298c0-9.5-53.41-10.18-119.29-10.18S125,295.56,125,305.05s53.41,17.2,119.29,17.2S363.56,307.53,363.56,298Z" style="fill:#407BFF"></path><path d="M125,305.05l.66,17c65.21,18.46,147.79,11.71,238.81-7.25.33-4.57-.25-11.09-1.11-18.75Q241.93,320.65,125,305.05Z" style="fill:#407BFF"></path><path d="M125,305.05l.66,17c65.21,18.46,147.79,11.71,238.81-7.25.33-4.57-.25-11.09-1.11-18.75Q241.93,320.65,125,305.05Z" style="opacity:0.2"></path><path d="M116.21,304.76s-39.3-79.38,128.39-79.38,122.16,71,122.16,71C282.35,306.65,199.33,310.73,116.21,304.76Z" style="fill:#407BFF"></path><path d="M116.21,304.76s-39.3-79.38,128.39-79.38,122.16,71,122.16,71C282.35,306.65,199.33,310.73,116.21,304.76Z" style="fill:#fff;opacity:0.30000000000000004"></path><path d="M306.75,277.83c0,2.13.91,3.85,2,3.85s2-1.72,2-3.85-.92-3.85-2-3.85S306.75,275.7,306.75,277.83Z" style="fill:#e6e6e6"></path><ellipse cx="235.74" cy="230.38" rx="2.05" ry="1.93" style="fill:#e6e6e6"></ellipse><path d="M277.39,231.7a2.05,2.05,0,1,0,2.05-1.92A2,2,0,0,0,277.39,231.7Z" style="fill:#e6e6e6"></path><path d="M270.91,233.33c0,2.13.92,3.85,2,3.85s2-1.72,2-3.85-.91-3.85-2-3.85S270.91,231.21,270.91,233.33Z" style="fill:#e6e6e6"></path><path d="M288.15,232.3c0,2.13.91,3.85,2,3.85s2.05-1.72,2.05-3.85-.92-3.85-2.05-3.85S288.15,230.18,288.15,232.3Z" style="fill:#e6e6e6"></path><path d="M189.79,247.26c0,2.13.91,3.85,2,3.85s2-1.72,2-3.85-.92-3.85-2-3.85S189.79,245.14,189.79,247.26Z" style="fill:#e6e6e6"></path><path d="M128.44,253.53c0,2.13.92,3.85,2.05,3.85s2-1.72,2-3.85-.92-3.85-2-3.85S128.44,251.41,128.44,253.53Z" style="fill:#e6e6e6"></path><path d="M291.66,264.36c0,2.13.91,3.85,2,3.85s2.05-1.72,2.05-3.85-.92-3.85-2.05-3.85S291.66,262.24,291.66,264.36Z" style="fill:#e6e6e6"></path><ellipse cx="286.51" cy="260.51" rx="2.05" ry="3.85" style="fill:#e6e6e6"></ellipse><ellipse cx="290.19" cy="248.03" rx="2.05" ry="3.85" style="fill:#e6e6e6"></ellipse><path d="M350.32,274.82c0,2.13.91,3.85,2,3.85s2.05-1.72,2.05-3.85-.92-3.85-2.05-3.85S350.32,272.69,350.32,274.82Z" style="fill:#e6e6e6"></path><path d="M353.72,278.36c0,2.13.91,3.85,2,3.85s2.05-1.72,2.05-3.85-.92-3.85-2.05-3.85S353.72,276.24,353.72,278.36Z" style="fill:#e6e6e6"></path><path d="M370.16,278.36c0,2.13.92,3.85,2,3.85s2-1.72,2-3.85-.91-3.85-2-3.85S370.16,276.24,370.16,278.36Z" style="fill:#e6e6e6"></path><path d="M189.79,286.24c0,2.13.91,3.85,2,3.85s2-1.72,2-3.85-.92-3.85-2-3.85S189.79,284.12,189.79,286.24Z" style="fill:#e6e6e6"></path><path d="M251.87,229c-1.39,1.61-1.82,3.51-1,4.25s2.68,0,4.07-1.57,1.82-3.52,1-4.25S253.26,227.43,251.87,229Z" style="fill:#e6e6e6"></path><path d="M157.53,237.91c-1.39,1.61-1.82,3.51-1,4.25s2.68,0,4.07-1.58,1.82-3.51,1-4.25S158.92,236.3,157.53,237.91Z" style="fill:#e6e6e6"></path><path d="M198,228.82c-1.39,1.61-1.83,3.51-1,4.25s2.67,0,4.06-1.57,1.83-3.52,1-4.26S199.35,227.21,198,228.82Z" style="fill:#e6e6e6"></path><path d="M214.89,237.91c-1.39,1.61-1.82,3.51-1,4.25s2.68,0,4.07-1.58,1.82-3.51,1-4.25S216.28,236.3,214.89,237.91Z" style="fill:#e6e6e6"></path><path d="M115.7,263c-1.39,1.6-1.82,3.51-1,4.25s2.68,0,4.07-1.58,1.82-3.51,1-4.25S117.09,261.42,115.7,263Z" style="fill:#e6e6e6"></path><path d="M132.41,266.88c-1.39,1.6-1.83,3.51-1,4.25s2.67,0,4.06-1.58,1.83-3.51,1-4.25S133.8,265.27,132.41,266.88Z" style="fill:#e6e6e6"></path><path d="M168.38,255.33c-1.39,1.6-1.83,3.51-1,4.25s2.67,0,4.06-1.58,1.83-3.51,1-4.25S169.77,253.72,168.38,255.33Z" style="fill:#e6e6e6"></path><path d="M188.24,255.33c-1.39,1.6-1.82,3.51-1,4.25s2.67,0,4.06-1.58,1.83-3.51,1-4.25S189.63,253.72,188.24,255.33Z" style="fill:#e6e6e6"></path><path d="M264.37,255.33c-1.39,1.6-1.82,3.51-1,4.25s2.68,0,4.07-1.58,1.82-3.51,1-4.25S265.76,253.72,264.37,255.33Z" style="fill:#e6e6e6"></path><path d="M273.29,247.16c-1.39,1.61-1.82,3.51-1,4.25s2.68,0,4.07-1.58,1.82-3.51,1-4.25S274.68,245.55,273.29,247.16Z" style="fill:#e6e6e6"></path><path d="M204.84,252.2c-1.39,1.61-1.83,3.51-1,4.25s2.67,0,4.06-1.58,1.83-3.51,1-4.25S206.23,250.59,204.84,252.2Z" style="fill:#e6e6e6"></path><path d="M202.06,246.45c-1.39,1.61-1.82,3.52-1,4.25s2.68,0,4.07-1.57,1.82-3.51,1-4.25S203.45,244.84,202.06,246.45Z" style="fill:#e6e6e6"></path><path d="M133.25,249c-1.39,1.61-1.82,3.51-1,4.25s2.68,0,4.07-1.58,1.82-3.51,1-4.25S134.64,247.36,133.25,249Z" style="fill:#e6e6e6"></path><path d="M136.37,251.66c-1.39,1.61-1.82,3.51-1,4.25s2.68,0,4.07-1.57,1.82-3.52,1-4.25S137.76,250.05,136.37,251.66Z" style="fill:#e6e6e6"></path><path d="M165.35,235.55c-1.39,1.61-1.82,3.51-1,4.25s2.68,0,4.07-1.58,1.82-3.51,1-4.25S166.74,233.94,165.35,235.55Z" style="fill:#e6e6e6"></path><path d="M189.44,235.55c-1.39,1.61-1.82,3.51-1,4.25s2.68,0,4.07-1.58,1.82-3.51,1-4.25S190.83,233.94,189.44,235.55Z" style="fill:#e6e6e6"></path><path d="M155.16,280.87c-1.39,1.61-1.82,3.52-1,4.26s2.68,0,4.07-1.58,1.82-3.51,1-4.25S156.55,279.27,155.16,280.87Z" style="fill:#e6e6e6"></path><path d="M229.48,273.48c-1.39,1.61-1.83,3.52-1,4.25s2.67,0,4.06-1.57,1.83-3.51,1-4.25S230.87,271.87,229.48,273.48Z" style="fill:#e6e6e6"></path><path d="M240.68,284.9c-1.39,1.61-1.83,3.52-1,4.26s2.67,0,4.06-1.58,1.83-3.51,1-4.25S242.07,283.3,240.68,284.9Z" style="fill:#e6e6e6"></path><path d="M248.47,284.81c-1.39,1.61-1.82,3.51-1,4.25s2.67,0,4.06-1.58,1.82-3.51,1-4.25S249.86,283.2,248.47,284.81Z" style="fill:#e6e6e6"></path><path d="M333.79,284.63c-1.68-1.31-3.61-1.64-4.3-.75s.11,2.67,1.79,4,3.6,1.64,4.29.74S335.47,285.93,333.79,284.63Z" style="fill:#e6e6e6"></path><path d="M224.31,228.16c-1.68-1.3-3.6-1.64-4.3-.74s.11,2.67,1.79,4,3.6,1.64,4.29.75S226,229.47,224.31,228.16Z" style="fill:#e6e6e6"></path><path d="M175.25,237.63c-1.68-1.3-3.6-1.64-4.3-.75s.11,2.68,1.79,4,3.6,1.64,4.29.75S176.93,238.94,175.25,237.63Z" style="fill:#e6e6e6"></path><path d="M155.34,251.92c-1.68-1.31-3.6-1.64-4.3-.75s.11,2.67,1.79,4,3.6,1.64,4.29.75S157,253.22,155.34,251.92Z" style="fill:#e6e6e6"></path><path d="M325.44,264.52c-1.68-1.31-3.6-1.64-4.3-.75s.11,2.67,1.79,4,3.6,1.64,4.29.74S327.12,265.82,325.44,264.52Z" style="fill:#e6e6e6"></path><path d="M327.42,243.87c-1.68-1.3-3.6-1.64-4.29-.75s.1,2.68,1.78,4,3.6,1.64,4.3.75S329.1,245.18,327.42,243.87Z" style="fill:#e6e6e6"></path><path d="M305.12,238c-1.68-1.3-3.6-1.64-4.29-.75s.1,2.68,1.78,4,3.61,1.64,4.3.75S306.8,239.27,305.12,238Z" style="fill:#e6e6e6"></path><path d="M302.88,230.69c-1.68-1.31-3.6-1.64-4.29-.75s.1,2.67,1.78,4,3.61,1.64,4.3.75S304.56,232,302.88,230.69Z" style="fill:#e6e6e6"></path><path d="M150.47,274.12c-1.68-1.3-3.6-1.64-4.3-.75s.11,2.68,1.79,4,3.6,1.64,4.29.75S152.15,275.42,150.47,274.12Z" style="fill:#e6e6e6"></path><path d="M190,266.6c-1.68-1.31-3.6-1.64-4.3-.75s.11,2.67,1.79,4,3.6,1.64,4.29.74S191.66,267.9,190,266.6Z" style="fill:#e6e6e6"></path><path d="M206.11,266.6c-1.67-1.31-3.6-1.64-4.29-.75s.11,2.67,1.79,4,3.6,1.64,4.29.74S207.79,267.9,206.11,266.6Z" style="fill:#e6e6e6"></path><path d="M283.47,265.85c-1.68-1.3-3.61-1.64-4.3-.75s.11,2.68,1.79,4,3.6,1.64,4.29.75S285.14,267.16,283.47,265.85Z" style="fill:#e6e6e6"></path><path d="M251.28,256.54c-1.68-1.3-3.61-1.64-4.3-.75s.11,2.68,1.79,4,3.6,1.64,4.29.75S253,257.85,251.28,256.54Z" style="fill:#e6e6e6"></path><path d="M357.59,258.9c-1.68-1.31-3.6-1.64-4.3-.75s.11,2.67,1.79,4,3.6,1.64,4.29.74S359.27,260.2,357.59,258.9Z" style="fill:#e6e6e6"></path><path d="M364.25,255.05c-1.68-1.31-3.6-1.64-4.29-.75s.1,2.67,1.78,4,3.6,1.64,4.3.74S365.93,256.35,364.25,255.05Z" style="fill:#e6e6e6"></path><path d="M369.32,262.75c-1.68-1.31-3.6-1.64-4.3-.75s.11,2.67,1.79,4,3.6,1.64,4.3.74S371,264.05,369.32,262.75Z" style="fill:#e6e6e6"></path><path d="M274.34,274c0,1-1.75,1.78-3.91,1.78s-3.91-.8-3.91-1.78,1.75-1.77,3.91-1.77S274.34,273,274.34,274Z" style="fill:#e6e6e6"></path><path d="M246.13,228.38c0,1-1.75,1.78-3.91,1.78s-3.91-.8-3.91-1.78,1.75-1.78,3.91-1.78S246.13,227.4,246.13,228.38Z" style="fill:#e6e6e6"></path><path d="M261.5,226.68c0,1-1.75,1.77-3.91,1.77s-3.91-.79-3.91-1.77,1.75-1.78,3.91-1.78S261.5,225.69,261.5,226.68Z" style="fill:#e6e6e6"></path><path d="M274.5,229c0,1-1.75,1.77-3.91,1.77s-3.91-.79-3.91-1.77,1.75-1.78,3.91-1.78S274.5,228,274.5,229Z" style="fill:#e6e6e6"></path><path d="M208.77,228.45c0,1-1.75,1.78-3.91,1.78s-3.91-.8-3.91-1.78,1.75-1.77,3.91-1.77S208.77,227.47,208.77,228.45Z" style="fill:#e6e6e6"></path><path d="M236.49,243.71c0,1-1.75,1.78-3.91,1.78s-3.91-.8-3.91-1.78,1.75-1.78,3.91-1.78S236.49,242.73,236.49,243.71Z" style="fill:#e6e6e6"></path><path d="M238.84,250.27c0,1-1.75,1.78-3.91,1.78s-3.91-.8-3.91-1.78,1.75-1.78,3.91-1.78S238.84,249.29,238.84,250.27Z" style="fill:#e6e6e6"></path><path d="M230.91,253.53c0,1-1.75,1.78-3.91,1.78s-3.91-.79-3.91-1.78,1.75-1.77,3.91-1.77S230.91,252.55,230.91,253.53Z" style="fill:#e6e6e6"></path><path d="M194.72,245.49c0,1-1.75,1.77-3.91,1.77s-3.91-.79-3.91-1.77,1.75-1.78,3.91-1.78S194.72,244.5,194.72,245.49Z" style="fill:#e6e6e6"></path><path d="M321.43,235.11c0,1-1.75,1.78-3.91,1.78s-3.91-.8-3.91-1.78,1.75-1.78,3.91-1.78S321.43,234.13,321.43,235.11Z" style="fill:#e6e6e6"></path><path d="M252.3,236.89c0,1-1.75,1.77-3.91,1.77s-3.91-.79-3.91-1.77,1.75-1.78,3.91-1.78S252.3,235.91,252.3,236.89Z" style="fill:#e6e6e6"></path><path d="M268.52,235.11c0,1-1.75,1.78-3.91,1.78s-3.91-.8-3.91-1.78,1.75-1.78,3.91-1.78S268.52,234.13,268.52,235.11Z" style="fill:#e6e6e6"></path><path d="M279,233.33c0,1-1.75,1.78-3.91,1.78s-3.91-.8-3.91-1.78,1.75-1.77,3.91-1.77S279,232.35,279,233.33Z" style="fill:#e6e6e6"></path><path d="M289.65,231.56c0,1-1.75,1.77-3.91,1.77s-3.91-.79-3.91-1.77,1.75-1.78,3.91-1.78S289.65,230.57,289.65,231.56Z" style="fill:#e6e6e6"></path><path d="M123,317.69s85.5,21.81,98.4,21.81S366.51,305,366.51,305L123,312.14Z" style="fill:#407BFF"></path><path d="M123,317.69s85.5,21.81,98.4,21.81S366.51,305,366.51,305L123,312.14Z" style="fill:#fff;opacity:0.4"></path><path d="M113.71,297.53s-17.21,0-17.21,10,18,6.93,18,6.93-16.14,6.32-8.07,12,39.34-12,39.34-12-11.44,9.94,3.29,12,24.78-7.57,24.78-7.57S166,338.5,179.9,337.3s12.66-16.74,12.66-16.74,7.22,4.44,20.74,3.84a98.37,98.37,0,0,0,25.36-4.8s4.05,8.4,20.14,6.9,22.5-9.84,22.5-9.84,14,12.84,30.9,10.14,8.51-10.14,8.51-10.14,16.74,7.54,29.42,2.94,7.49-14.55,7.49-14.55,11.58,19.46,22.68,11.61,6-16.26,6-16.26,9.6,3.86,9.6-2.87-27.2-4.88-27.2-4.88l-1.94,3.74c-89.9,11.06-173.13,13.94-250.55,8.37Z" style="fill:#407BFF"></path><path d="M107.05,314.88a20.21,20.21,0,0,0,10.2-5.48l-2.78,5.06Z" style="opacity:0.30000000000000004"></path><path d="M147.11,309.4s-12.06,3.56-15.26,7.71A43.79,43.79,0,0,1,123,325c6.43-2.16,14.26-6,22.73-10.52Z" style="opacity:0.30000000000000004"></path><path d="M173.81,318.93l2.56-8.36c-8.34,8-17.46,13.26-27.34,15.93C157.67,327.85,165.91,325.16,173.81,318.93Z" style="opacity:0.30000000000000004"></path><path d="M192.56,320.56c-.83-1.63-1.21-4.51-1.57-7.47,2.93,5.5,6.47,9.66,11.47,10.68A33.45,33.45,0,0,1,192.56,320.56Z" style="opacity:0.30000000000000004"></path><path d="M230.19,322c5.63-2.61,8.88-6.34,9.69-11.23a16,16,0,0,1-1.22,8.85Z" style="opacity:0.30000000000000004"></path><path d="M256.43,326.65c14-2,22.56-7.42,25.06-16.08.37,2.42.66,4.75-.19,6.09C275.56,322.92,267,325.94,256.43,326.65Z" style="opacity:0.30000000000000004"></path><path d="M320.71,316.66a21.69,21.69,0,0,1-9.87-9.13c14.79,10.46,28.74,14.59,41.52,11.12C343.88,322.29,333.46,321.89,320.71,316.66Z" style="opacity:0.30000000000000004"></path><path d="M357.62,305.05l-3.9-7.11c9.16,14,18.58,20.5,26.58,18.72C373.21,320.94,365.66,317.28,357.62,305.05Z" style="opacity:0.30000000000000004"></path><path d="M386.3,300.4l-19.54-4,1-1.85c22.93,7.27,28.13,6.19,28.18,3C395.61,301.68,392.29,302.51,386.3,300.4Z" style="opacity:0.30000000000000004"></path><path d="M119.8,360.69c90,23.56,172.63,21.65,248.94-1.79l1.78,1.67s16.3,2.38,16.3-4-10.47-3.6-10.47-3.6,11.22-4.36,2.45-8.48-16,8.7-16,8.7,1.94-6.3-7.23-7.5-18.18,9.07-18.18,9.07,8.11-8.47-3.3-7.42-13.39,10-13.39,10,2.44-5.4-10.06-4.2S288,365,288,365s3.31-10.8-5.94-10.27S260.52,367,260.52,367s-8-12.3-20-11.24-20.92,11.53-20.92,11.53-9.63-13.77-22-12.87-13.8,10.2-13.8,10.2-18.74-13.8-24.32-13.2-5.91,11.4-5.91,11.4-8.37-10.5-16.84-10.8-3,5.7-3,5.7-16.49-8.4-21.56-5.1,3.49,6.3,3.49,6.3-7-4-8.53,1.67,11.07,3.35,11.07,3.35Z" style="fill:#407BFF"></path><path d="M107.72,363.07c5.88,1.42,9.59.74,12.08-2.38l-1.56,3.23C114.35,364.84,110.77,364.82,107.72,363.07Z" style="opacity:0.30000000000000004"></path><path d="M115.7,358.9l4.1,1.79,15.26,3.77c-12.37-3.71-24.83-7.42-22.85-11.86C109.19,354.91,110.79,357,115.7,358.9Z" style="opacity:0.30000000000000004"></path><path d="M133.77,357.7c.92,1.87,6.34,5.54,11.81,9.23-5.9-5.19-11.8-10.37-13.38-13.59C131.68,354.73,132.29,356.19,133.77,357.7Z" style="opacity:0.30000000000000004"></path><path d="M155.11,355.39a23,23,0,0,0-1.54,7.41c-.63,3.31,6.85,5.66,13.4,8.12C159.93,366.62,153.32,362.19,155.11,355.39Z" style="opacity:0.30000000000000004"></path><path d="M183.8,364.6a12.73,12.73,0,0,1,8-9c-6.36,8.25,1.93,13.81,8.69,19.65C191.44,371.73,183.52,368.17,183.8,364.6Z" style="opacity:0.30000000000000004"></path><path d="M235.47,361.38c-3.82,1.43-8.64,7.8-9.13,15.73l28.16.34c.46-7.5-6-15.12-9-16.22A13.74,13.74,0,0,0,235.47,361.38Z" style="opacity:0.30000000000000004"></path><path d="M286.6,355.93c1.92,2,2.55,4.87,1.37,9.11-2.64,4.13-6.65,7.86-11.77,11.25C284.67,368.49,289,361.53,286.6,355.93Z" style="opacity:0.30000000000000004"></path><path d="M368.74,358.9l1.78,1.67q14,1.08,15.29-1.67Q379.72,362.23,368.74,358.9Z" style="opacity:0.30000000000000004"></path><path d="M376.35,353c-4.35,4.24-8.89,6.91-13.66,7.71,13.22-6.5,19.36-11.73,17.38-15.5C383.59,347.41,382.88,350,376.35,353Z" style="opacity:0.30000000000000004"></path><path d="M362.81,353.2c-3.93,4.8-9.66,8.55-16.16,11.84,10.44-8.22,18.65-15.65,13-18.22C362.76,348.06,363.87,350.16,362.81,353.2Z" style="opacity:0.30000000000000004"></path><path d="M337.4,354.77a162.85,162.85,0,0,1-11.23,14.33c9.71-12,15.88-21.23,11.21-21.75C341.42,348,340.82,350.71,337.4,354.77Z" style="opacity:0.30000000000000004"></path><path d="M320.71,357.4l-9.87,14.82c6.27-9,10.68-16.76,6.83-18.83C319.77,353.88,321.26,354.84,320.71,357.4Z" style="opacity:0.30000000000000004"></path></g></svg>