<svg width="14" height="14" viewBox="0 0 14 14" fill="none" xmlns="http://www.w3.org/2000/svg">
<path fill-rule="evenodd" clip-rule="evenodd" d="M9.32264 10.3833C8.39957 11.0841 7.24835 11.5 6 11.5C2.96243 11.5 0.5 9.03757 0.5 6C0.5 2.96243 2.96243 0.5 6 0.5C9.03757 0.5 11.5 2.96243 11.5 6C11.5 7.24835 11.0841 8.39957 10.3833 9.32264L13.2803 12.2197C13.5732 12.5126 13.5732 12.9874 13.2803 13.2803C12.9874 13.5732 12.5126 13.5732 12.2197 13.2803L9.32264 10.3833ZM10 6C10 8.20914 8.20914 10 6 10C3.79086 10 2 8.20914 2 6C2 3.79086 3.79086 2 6 2C8.20914 2 10 3.79086 10 6Z" fill="#000"/>
</svg>
